<?xml version="1.0" encoding="UTF-8" standalone="no"?>
<!-- Created with Inkscape (http://www.inkscape.org/) -->

<svg
   width="683.54517"
   height="73.002228"
   viewBox="0 0 180.85467 19.315173"
   version="1.1"
   id="svg129"
   inkscape:version="1.2.1 (9c6d41e410, 2022-07-14)"
   xml:space="preserve"
   sodipodi:docname="logo.svg"
   xmlns:inkscape="http://www.inkscape.org/namespaces/inkscape"
   xmlns:sodipodi="http://sodipodi.sourceforge.net/DTD/sodipodi-0.dtd"
   xmlns="http://www.w3.org/2000/svg"
   xmlns:svg="http://www.w3.org/2000/svg"><sodipodi:namedview
     id="namedview131"
     pagecolor="#272727"
     bordercolor="#000000"
     borderopacity="0.25"
     inkscape:showpageshadow="2"
     inkscape:pageopacity="0"
     inkscape:pagecheckerboard="0"
     inkscape:deskcolor="#6b6b6b"
     inkscape:document-units="in"
     showgrid="false"
     inkscape:zoom="0.93321078"
     inkscape:cx="277.53644"
     inkscape:cy="160.73539"
     inkscape:window-width="2560"
     inkscape:window-height="1346"
     inkscape:window-x="-11"
     inkscape:window-y="-11"
     inkscape:window-maximized="1"
     inkscape:current-layer="layer1" /><defs
     id="defs126"><filter
       inkscape:collect="always"
       style="color-interpolation-filters:sRGB"
       id="filter2131"
       x="-0.0016557635"
       y="-0.015944969"
       width="1.0033115"
       height="1.0318899"><feGaussianBlur
         inkscape:collect="always"
         stdDeviation="0.12436008"
         id="feGaussianBlur2133" /></filter></defs><g
     inkscape:label="Layer 1"
     inkscape:groupmode="layer"
     id="layer1"
     transform="translate(-102.3361,-23.069114)"><g
       aria-label="RHINO.TRAINING"
       id="text353"
       style="font-style:italic;font-weight:bold;font-size:23.2533px;font-family:Roboto;-inkscape-font-specification:'Roboto Bold Italic';fill:#00ff00;stroke:#00ff00;stroke-width:1.73038;stroke-linecap:round;paint-order:markers stroke fill"><path
         id="path1098"
         style="color:#000000;-inkscape-font-specification:'Roboto Bold Italic';mix-blend-mode:normal;stroke:none;stroke-linecap:butt;-inkscape-stroke:none;filter:url(#filter2131)"
         d="m 165.80952,23.368083 c -1.25056,0.01281 -2.44358,0.298659 -3.53984,0.854728 h -0.002 c -0.0839,0.0429 -0.1652,0.09093 -0.24753,0.136943 h 7.49773 c -0.0374,-0.02363 -0.0731,-0.04955 -0.1111,-0.07235 -0.97281,-0.591154 -2.10653,-0.893038 -3.34398,-0.91829 h -0.002 c -0.0839,-0.0016 -0.16778,-0.0019 -0.25115,-0.001 z m 110.25942,0 c -1.30137,0.0143 -2.52538,0.311545 -3.62768,0.893486 -0.059,0.03076 -0.11555,0.06583 -0.17364,0.09818 h 7.78144 c -1.032,-0.641289 -2.29559,-0.965661 -3.71915,-0.990637 -0.0874,-0.0016 -0.17421,-0.002 -0.26097,-0.001 z m -170.26041,0.225826 -0.13332,0.765845 h 9.98337 c -1.02116,-0.509568 -2.24946,-0.752171 -3.64681,-0.752409 h -0.002 z m 88.33621,0 -0.13332,0.765845 h 9.98388 c -1.0217,-0.509905 -2.25106,-0.752409 -3.64939,-0.752409 z m -73.82443,0.0016 -0.13281,0.764295 h 5.08341 l 0.13332,-0.764295 z m 9.74049,0 -0.13229,0.764295 h 5.08392 l 0.1323,-0.764295 z m 6.51743,0 -0.13229,0.764295 h 5.08186 l 0.13229,-0.764295 z m 6.48436,0 -0.13281,0.764295 h 4.96921 l -0.31885,-0.764295 z m 9.74204,0 -0.13281,0.764295 h 5.07101 l 0.13229,-0.764295 z m 26.28728,0 -0.13539,0.764295 h 14.83579 l 0.13539,-0.764295 z m 34.31419,0 -0.40824,0.764295 h 4.8643 l -0.14521,-0.764295 z m 10.74611,0 -0.13229,0.764295 h 5.08393 l 0.13229,-0.764295 z m 6.48436,0 -0.13281,0.764295 h 4.96921 l -0.31884,-0.764295 z m 9.74256,0 -0.13281,0.764295 h 5.07049 l 0.1323,-0.764295 z m 6.50555,0 -0.13229,0.764295 h 5.08237 l 0.13229,-0.764295 z m 6.48229,0 -0.13281,0.764295 h 4.96921 l -0.31885,-0.764295 z m 9.74256,0 -0.13281,0.764295 h 5.07049 l 0.13229,-0.764295 z m -157.61054,1.778187 -0.12713,0.732771 h 12.27626 c -0.16759,-0.262599 -0.36331,-0.506672 -0.58446,-0.732771 z m 14.51229,0 -0.12764,0.732771 h 5.08186 l 0.12816,-0.732771 z m 9.74204,0 -0.1266,0.732771 h 5.08341 l 0.1266,-0.732771 z m 6.51743,0 -0.12712,0.732771 h 5.08186 l 0.12713,-0.732771 z m 6.48281,0 -0.12764,0.732771 h 6.0017 l -0.3054,-0.732771 z m 9.74204,0 -0.12764,0.732771 h 5.07256 l 0.12661,-0.732771 z m 8.10339,0 c -0.25375,0.22652 -0.4972,0.471048 -0.72968,0.732771 h 11.4205 c -0.17308,-0.260508 -0.36135,-0.50586 -0.56638,-0.732771 z m 18.1777,0 -0.12971,0.732771 h 14.8363 l 0.12971,-0.732771 z m 15.05851,0 -0.12712,0.732771 h 12.27625 c -0.16742,-0.26262 -0.36336,-0.506657 -0.58446,-0.732771 z m 18.62057,0 -0.39119,0.732771 h 6.12986 l -0.13901,-0.732771 z m 11.38897,0 -0.12712,0.732771 h 5.08392 l 0.12661,-0.732771 z m 6.48281,0 -0.12713,0.732771 h 6.00119 l -0.30541,-0.732771 z m 9.74204,0 -0.12713,0.732771 h 5.07205 l 0.1266,-0.732771 z m 6.5071,0 -0.12661,0.732771 h 5.08238 l 0.1266,-0.732771 z m 6.48125,0 -0.12712,0.732771 h 6.0017 l -0.30592,-0.732771 z m 9.74256,0 -0.12712,0.732771 h 5.07152 l 0.12713,-0.732771 z m 8.05584,0 c -0.24986,0.226324 -0.48845,0.470737 -0.71572,0.732771 h 11.66389 c -0.16617,-0.260857 -0.35226,-0.504594 -0.55656,-0.732771 z m -165.66069,1.746663 -0.12713,0.732772 h 13.25708 c -0.0472,-0.251677 -0.10829,-0.497004 -0.18914,-0.732772 z m 14.51177,0 -0.12712,0.732772 h 5.08031 l 0.12816,-0.732772 z m 9.7436,0 -0.12661,0.732772 h 5.08289 l 0.12713,-0.732772 z m 6.51743,0 -0.12713,0.732772 h 5.08238 l 0.12661,-0.732772 z m 6.48126,0 -0.12713,0.732772 h 7.0342 l -0.30593,-0.732772 z m 9.74204,0 -0.12764,0.732772 h 5.07411 l 0.1266,-0.732772 z m 6.89157,0 c -0.16209,0.237565 -0.31611,0.480984 -0.45941,0.732772 h 13.51081 c -0.085,-0.250183 -0.18016,-0.495034 -0.28784,-0.732772 z m 19.38383,0 -0.12971,0.732772 h 14.8363 l 0.0858,-0.482141 0.0444,-0.250631 z m 15.06471,0 -0.12712,0.732772 h 13.25552 c -0.047,-0.251683 -0.10794,-0.496999 -0.18862,-0.732772 z m 17.99063,0 -0.39119,0.732772 h 7.39542 l -0.13901,-0.732772 z m 12.01994,0 -0.12712,0.732772 h 5.08393 l 0.1266,-0.732772 z m 6.48178,0 -0.12764,0.732772 h 7.03419 l -0.30592,-0.732772 z m 9.74204,0 -0.12764,0.732772 h 5.07359 l 0.12661,-0.732772 z m 6.50813,0 -0.12713,0.732772 h 5.08238 l 0.12713,-0.732772 z m 6.48022,0 -0.12764,0.732772 h 7.03472 l -0.30593,-0.732772 z m 9.74256,0 -0.12712,0.732772 h 5.07307 l 0.12661,-0.732772 z m 6.87968,0 c -0.15562,0.236925 -0.30203,0.481428 -0.43925,0.732772 h 6.92206 c 0.12166,-0.0081 0.24702,-0.01138 0.37879,-0.0072 9.4e-4,3.5e-5 5.5e-4,-3.5e-5 0.002,0 0.0268,0.001 0.0456,0.0057 0.0713,0.0072 h 6.26576 c -0.0725,-0.252295 -0.15318,-0.49797 -0.24856,-0.732772 z m -164.48453,1.746663 -0.12764,0.732772 h 5.08599 l 0.12713,-0.732772 z m 8.46201,0 c 0.0263,0.161937 0.0289,0.363464 -0.0103,0.635104 v 0.0021 c -0.005,0.03486 -0.0153,0.06217 -0.0212,0.0956 h 5.07359 c 0.005,-0.05685 0.0135,-0.112498 0.0176,-0.170015 v -0.0021 c 0.014,-0.189655 0.0166,-0.376007 0.0145,-0.56069 z m 6.04976,0 -0.12712,0.732772 h 5.07876 l 0.12816,-0.732772 z m 9.74515,0 -0.12661,0.732772 h 5.08238 l 0.12712,-0.732772 z m 6.51691,0 -0.12712,0.732772 h 5.08237 l 0.12661,-0.732772 z m 6.48023,0 -0.12713,0.732772 h 8.06618 l -0.30593,-0.732772 z m 9.74152,0 -0.12712,0.732772 h 5.07514 l 0.12661,-0.732772 z m 6.22649,0 c -0.10539,0.238897 -0.20237,0.483387 -0.293,0.732772 h 5.34179 c 0.0487,-0.08687 0.0958,-0.177016 0.14728,-0.257865 0.11512,-0.178757 0.23229,-0.332406 0.3514,-0.474907 z m 9.15397,0 c 0.0853,0.200896 0.15547,0.443729 0.20515,0.732772 h 5.05706 c -0.0324,-0.249374 -0.0771,-0.492488 -0.12764,-0.732772 z m 15.74477,0 -0.12712,0.732772 h 5.08393 l 0.12712,-0.732772 z m 10.2154,0 -0.12764,0.732772 h 5.08599 l 0.12713,-0.732772 z m 8.46098,0 c 0.0267,0.161938 0.0294,0.363461 -0.01,0.635104 v 0.0021 c -0.005,0.03484 -0.0153,0.06218 -0.0212,0.0956 h 5.07204 c 0.005,-0.05685 0.0135,-0.112505 0.0176,-0.170015 v -0.0021 c 0.0139,-0.189655 0.0166,-0.376008 0.0145,-0.56069 z m 8.89972,0 -0.39119,0.732772 h 8.66097 l -0.13901,-0.732772 z m 12.6509,0 -0.12712,0.732772 h 5.08393 l 0.12661,-0.732772 z m 6.48023,0 -0.12712,0.732772 h 8.06617 l -0.30592,-0.732772 z m 9.74204,0 -0.12764,0.732772 h 5.07514 l 0.12661,-0.732772 z m 6.50968,0 -0.12712,0.732772 h 5.08237 l 0.12713,-0.732772 z m 6.47868,0 -0.12713,0.732772 h 8.06669 l -0.3054,-0.732772 z m 9.74307,0 -0.12712,0.732772 h 5.07411 l 0.1266,-0.732772 z m 6.25595,0 c -0.1006,0.238985 -0.19483,0.483043 -0.28112,0.732772 h 5.34541 c 0.0561,-0.104454 0.11184,-0.210157 0.17157,-0.304891 v -0.0021 c 0.0997,-0.157413 0.20139,-0.296505 0.30437,-0.425814 z m 9.33741,0 c 0.0679,0.197535 0.11995,0.446647 0.15762,0.732772 h 4.9475 c -0.0212,-0.250189 -0.0519,-0.494111 -0.0899,-0.732772 z m -173.19873,1.746664 -0.12712,0.732772 h 13.50977 c 0.0972,-0.235981 0.18007,-0.480256 0.24701,-0.732772 h -5.37073 c -0.0679,0.07266 -0.1378,0.144234 -0.22066,0.21084 -0.40146,0.321166 -0.91012,0.501038 -1.64228,0.513663 l -1.4335,-0.01189 0.1235,-0.712618 z m 14.51229,0 -0.12764,0.732772 h 14.82959 l 0.12661,-0.732772 z m 16.26309,0 -0.1266,0.732772 h 5.08186 l 0.1266,-0.732772 z m 6.47919,0 -0.12764,0.732772 h 9.09867 l -0.30592,-0.732772 z m 9.74101,0 -0.12712,0.732772 h 5.07617 l 0.12713,-0.732772 z m 5.91747,0 c -0.0254,0.09372 -0.0525,0.186132 -0.076,0.28112 -0.0377,0.152281 -0.0627,0.300772 -0.0956,0.451652 h 5.14956 c 0.068,-0.259625 0.14579,-0.501175 0.22841,-0.732772 z m 10.04332,0 c 9.9e-4,0.173248 0.007,0.338426 -0.004,0.530717 l -0.0171,0.202055 h 5.09892 c 0.005,-0.245457 -0.002,-0.489203 -0.0114,-0.732772 z m 15.16548,0 -0.12661,0.732772 h 5.08393 l 0.12661,-0.732772 z m 10.21436,0 -0.12712,0.732772 h 13.50822 c 0.0971,-0.235999 0.18011,-0.480243 0.24701,-0.732772 h -5.36918 c -0.0679,0.07275 -0.13781,0.144195 -0.22066,0.21084 -4.3e-4,3.48e-4 -0.002,-3.48e-4 -0.002,0 -0.40126,0.320514 -0.90935,0.501052 -1.64072,0.513663 l -1.43351,-0.01189 0.12403,-0.712618 z m 16.73128,0 -0.39119,0.732772 h 9.92653 l -0.13901,-0.732772 z m 13.28188,0 -0.12713,0.732772 h 5.08341 l 0.12713,-0.732772 z m 6.47919,0 -0.12713,0.732772 h 9.09816 l -0.30593,-0.732772 z m 9.74152,0 -0.12764,0.732772 h 5.07618 l 0.12712,-0.732772 z m 6.51072,0 -0.12661,0.732772 h 5.08238 l 0.1266,-0.732772 z m 6.47815,0 -0.12712,0.732772 h 9.09919 l -0.30593,-0.732772 z m 9.74308,0 -0.12712,0.732772 h 5.07514 l 0.12661,-0.732772 z m 5.97328,0 c -0.0502,0.195726 -0.0967,0.393941 -0.13901,0.595312 v 0.0021 c -0.01,0.04644 -0.0151,0.08927 -0.0243,0.135393 h 5.16144 c 0.0656,-0.260559 0.14001,-0.501831 0.21859,-0.732772 z m -163.57865,1.746663 -0.12764,0.732772 h 12.69018 c 0.21401,-0.230376 0.40872,-0.474623 0.58188,-0.732772 z m 14.51178,0 -0.12713,0.732772 h 14.83062 l 0.12661,-0.732772 z m 16.26464,0 -0.12661,0.732772 h 5.08186 l 0.12712,-0.732772 z m 6.47764,0 -0.12713,0.732772 h 5.08445 l 0.009,-0.05426 0.0227,0.05426 h 9.70225 l 0.12712,-0.732772 h -5.07721 l -0.0129,0.07338 -0.0305,-0.07338 z m 15.60266,0 c -0.0368,0.245353 -0.0752,0.491408 -0.0987,0.732772 h 5.1232 c 0.0289,-0.253324 0.0624,-0.497567 0.1018,-0.732772 z m 10.2893,0 -0.0543,0.413412 c -0.0149,0.11016 -0.0336,0.213068 -0.0506,0.31936 h 5.14388 c 0.0357,-0.244875 0.0708,-0.489492 0.0935,-0.732772 z m 14.97686,0 -0.12661,0.732772 h 5.08393 l 0.12661,-0.732772 z m 10.21333,0 -0.12764,0.732772 h 12.68915 c 0.2139,-0.230388 0.4083,-0.474616 0.58136,-0.732772 z m 16.10186,0 -0.39171,0.732772 h 5.31803 l 0.3638,-0.732772 z m 5.83789,0 0.11059,0.732772 h 4.8519 l -0.13901,-0.732772 z m 8.07444,0 -0.12661,0.732772 h 5.0829 l 0.12712,-0.732772 z m 6.47816,0 -0.12764,0.732772 h 5.08651 l 0.009,-0.05426 0.0227,0.05426 h 9.70018 l 0.12713,-0.732772 h -5.07721 l -0.0129,0.07338 -0.0305,-0.07338 z m 16.25327,0 -0.12661,0.732772 h 5.08238 l 0.12661,-0.732772 z m 6.47712,0 -0.12764,0.732772 h 5.08703 l 0.009,-0.05426 0.0227,0.05426 h 9.7007 l 0.12712,-0.732772 h -5.07617 l -0.0129,0.07545 -0.0315,-0.07545 z m 15.67605,0 c -0.0376,0.250916 -0.0637,0.492045 -0.0894,0.732772 h 5.12424 c 0.0294,-0.25355 0.0636,-0.49782 0.10231,-0.732772 z m 6.79442,0 -0.12919,0.732772 h 8.08632 l 0.11111,-0.732772 z m -170.33328,1.746664 -0.12712,0.732772 h 11.23497 l -0.11627,-0.335897 c 0.2341,-0.122327 0.45548,-0.256056 0.66869,-0.396875 z m 14.51229,0 -0.12764,0.732772 h 5.0891 l 0.0119,-0.06821 h 4.65812 l -0.0119,0.06821 h 5.08445 l 0.12712,-0.732772 z m 16.26568,0 -0.12661,0.732772 h 5.08238 l 0.12661,-0.732772 z m 6.47661,0 -0.12764,0.732772 h 5.08392 l 0.12764,-0.732772 z m 5.71593,0 0.3054,0.732772 h 8.67131 l 0.12712,-0.732772 z m 10.03039,0 c -0.005,0.247413 0.007,0.489903 0.0171,0.732772 h 5.06635 c -0.002,-0.187141 -0.007,-0.369382 0.005,-0.577743 v -0.0041 -0.0041 c 0.002,-0.05051 0.007,-0.09684 0.01,-0.146761 z m 10.13737,0 c -0.0658,0.258595 -0.13854,0.502952 -0.21859,0.732772 h 5.21777 c 0.0103,-0.03857 0.022,-0.07592 0.032,-0.114722 0.0534,-0.206826 0.0914,-0.412186 0.1359,-0.61805 z m 14.98616,0 -0.12712,0.732772 h 5.08393 l 0.12712,-0.732772 z m 10.21178,0 -0.12712,0.732772 h 11.23446 l -0.11628,-0.335897 c 0.23406,-0.122333 0.45555,-0.256048 0.6687,-0.396875 z m 15.47244,0 -0.3917,0.732772 h 12.45764 l -0.13901,-0.732772 z m 14.5433,0 -0.1266,0.732772 h 5.08289 l 0.12712,-0.732772 z m 6.47661,0 -0.12712,0.732772 h 5.08547 l 0.12765,-0.732772 z m 5.71748,0 0.30541,0.732772 h 8.66975 l 0.12713,-0.732772 z m 10.53734,0 -0.12712,0.732772 h 5.08238 l 0.12712,-0.732772 z m 6.47558,0 -0.12713,0.732772 h 5.086 l 0.12764,-0.732772 z m 5.71799,0 0.30541,0.732772 h 8.67079 l 0.12661,-0.732772 z m 10.09913,0 c -0.009,0.25076 -0.008,0.493894 -10e-4,0.732772 h 5.08651 c 5.7e-4,-0.138263 -0.006,-0.265166 0.003,-0.415479 v -0.0062 -0.0057 c 0.005,-0.105357 0.0144,-0.202605 0.0207,-0.305407 z m 6.64869,0 -0.12919,0.732772 h 8.13025 l 0.11059,-0.732772 z m -170.32811,1.746663 -0.12712,0.732772 h 5.08599 l 0.12764,-0.732772 z m 6.45749,0 0.23616,0.732772 h 5.32371 l -0.25425,-0.732772 z m 8.05429,0 -0.12713,0.732772 h 5.08703 l 0.12816,-0.732772 z m 9.74824,0 -0.12661,0.732772 h 5.08393 l 0.12712,-0.732772 z m 6.51898,0 -0.12661,0.732772 h 5.08238 l 0.12661,-0.732772 z m 6.47506,0 -0.12713,0.732772 h 5.08342 l 0.12764,-0.732772 z m 6.74842,0 0.30593,0.732772 h 7.63984 l 0.12661,-0.732772 z m 9.40305,0 c 0.0328,0.249464 0.0772,0.492736 0.12764,0.732772 h 5.13715 c -0.0853,-0.205906 -0.1566,-0.448091 -0.2067,-0.732772 z m 9.3741,0 c -0.13384,0.242933 -0.27781,0.463358 -0.43201,0.658358 -0.0215,0.02687 -0.0431,0.04867 -0.0646,0.07441 h 5.55212 c 0.1036,-0.238933 0.20205,-0.482342 0.29145,-0.732772 z m 15.34584,0 -0.12713,0.732772 h 5.08393 l 0.12712,-0.732772 z m 10.21074,0 -0.12712,0.732772 h 5.08599 l 0.12764,-0.732772 z m 6.45697,0 0.23616,0.732772 h 5.32371 l -0.25425,-0.732772 z m 8.38554,0 -0.39171,0.732772 h 13.72319 l -0.139,-0.732772 z m 15.17427,0 -0.12661,0.732772 h 5.08289 l 0.12661,-0.732772 z m 6.47557,0 -0.12764,0.732772 h 5.08548 l 0.12764,-0.732772 z m 6.74946,0 0.30541,0.732772 h 7.63881 l 0.1266,-0.732772 z m 9.5064,0 -0.12713,0.732772 h 5.08238 l 0.12712,-0.732772 z m 6.47454,0 -0.12764,0.732772 h 5.08599 l 0.12764,-0.732772 z m 6.74946,0 0.30592,0.732772 h 7.63984 l 0.12661,-0.732772 z m 9.44231,0 c 0.0292,0.247302 0.059,0.494343 0.10697,0.732772 h 5.1909 c -0.0912,-0.20679 -0.16491,-0.44959 -0.21549,-0.732772 z m 9.26817,0 -0.14314,0.732772 h 5.18831 l 0.11111,-0.732772 z m -173.32224,1.746664 -0.12764,0.732771 h 5.08548 l 0.12764,-0.732771 z m 7.3241,0 0.23668,0.732771 h 5.36556 l -0.25424,-0.732771 z m 7.18768,0 -0.12764,0.732771 h 5.08599 l 0.12764,-0.732771 z m 9.74979,0 -0.12661,0.732771 h 5.08341 l 0.12713,-0.732771 z m 6.51846,0 -0.1266,0.732771 h 5.08237 l 0.12713,-0.732771 z m 6.47403,0 -0.12764,0.732771 h 5.08289 l 0.12764,-0.732771 z m 7.7804,0 0.30593,0.732771 h 6.6089 l 0.1266,-0.732771 z m 9.0687,0 c 0.0848,0.250349 0.17953,0.495253 0.2868,0.732771 h 12.79457 c 0.16012,-0.23612 0.31055,-0.480792 0.45217,-0.732771 z m 13.87512,0 c -0.19899,0.215237 -0.35707,0.464068 -0.4718,0.732771 h 4.91391 c -0.11339,-0.269319 -0.27239,-0.518201 -0.47129,-0.732771 z m 10.1477,0 -0.1266,0.732771 h 5.08392 l 0.12661,-0.732771 z m 10.21023,0 -0.12764,0.732771 h 5.08496 l 0.12764,-0.732771 z m 7.32359,0 0.23667,0.732771 h 5.36557 l -0.25373,-0.732771 z m 6.88898,0 -0.39171,0.732771 h 14.98875 l -0.13901,-0.732771 z m 15.80524,0 -0.12661,0.732771 h 5.0829 l 0.1266,-0.732771 z m 6.47454,0 -0.12764,0.732771 h 5.08496 l 0.12764,-0.732771 z m 7.78092,0 0.30592,0.732771 h 6.60787 l 0.12661,-0.732771 z m 8.47545,0 -0.12661,0.732771 h 5.08238 l 0.12713,-0.732771 z m 6.47403,0 -0.12765,0.732771 h 5.08497 l 0.12764,-0.732771 z m 7.78143,0 0.30541,0.732771 h 6.60942 l 0.12712,-0.732771 z m 9.09092,0 c 0.0844,0.250577 0.18054,0.495016 0.28887,0.732771 h 13.38265 l 0.1111,-0.732771 h -6.86263 c -0.11673,0.0072 -0.23656,0.01061 -0.36225,0.0072 l -0.006,-0.0021 h -0.004 c -0.0211,-3.29e-4 -0.0353,-0.0045 -0.0558,-0.0052 z m -164.73517,1.746663 -0.12712,0.732772 h 5.08444 l 0.12816,-0.732772 z m 8.19175,0 0.23616,0.732772 h 5.40794 l -0.25425,-0.732772 z m 6.32003,0 -0.12712,0.732772 h 5.08392 l 0.12816,-0.732772 z m 9.75186,0 -0.12661,0.732772 h 5.0829 l 0.1266,-0.732772 z m 6.51846,0 -0.12712,0.732772 h 5.08238 l 0.12712,-0.732772 z m 6.47196,0 -0.12712,0.732772 h 5.08237 l 0.12764,-0.732772 z m 8.81342,0 0.30592,0.732772 h 5.57744 l 0.12661,-0.732772 z m 9.1922,0 c 0.17559,0.260291 0.36651,0.505414 0.57309,0.732772 h 10.13582 c 0.25473,-0.226468 0.49839,-0.471127 0.73122,-0.732772 z m 12.33568,0 c -5.4e-4,0.03859 -0.003,0.07712 -0.002,0.115755 0.006,0.209236 0.0395,0.416124 0.093,0.617017 h 5.14542 c 0.0655,-0.237801 0.0971,-0.484736 0.0946,-0.732772 z m 10.53218,0 -0.12661,0.732772 h 5.08393 l 0.1266,-0.732772 z m 10.20868,0 -0.12713,0.732772 h 5.08341 l 0.12764,-0.732772 z m 8.19123,0 0.23667,0.732772 h 10.34718 l 0.36638,-0.732772 h -5.55831 l -0.001,0.0016 -5.1e-4,-0.0016 z m 16.02693,0 0.11213,0.732772 h 5.11545 l -0.13952,-0.732772 z m 5.80119,0 -0.12661,0.732772 h 5.0829 l 0.12661,-0.732772 z m 6.47299,0 -0.12712,0.732772 h 5.08444 l 0.12713,-0.732772 z m 8.81342,0 0.30541,0.732772 h 5.57743 l 0.12661,-0.732772 z m 7.4445,0 -0.1266,0.732772 h 5.08237 l 0.12661,-0.732772 z m 6.47248,0 -0.12713,0.732772 h 5.08445 l 0.12764,-0.732772 z m 8.81341,0 0.30593,0.732772 h 5.57847 l 0.12712,-0.732772 z m 9.22011,0 c 0.17642,0.260625 0.36895,0.505389 0.57826,0.732772 h 11.35331 c 0.21919,-0.198913 0.41998,-0.412719 0.60048,-0.641821 l 0.0723,-0.09095 z m -165.89582,1.746664 -0.13281,0.763777 h 5.08393 l 0.13333,-0.763777 z m 9.05836,0 0.2465,0.763777 h 5.0369 v -0.763777 z m 5.45342,0 -0.13281,0.763777 h 5.08238 l 0.13332,-0.763777 z m 9.75289,0 -0.13177,0.763777 h 5.08237 l 0.12454,-0.718819 0.008,-0.04496 z m 6.51847,0 -0.13229,0.763777 h 5.08186 l 0.12505,-0.718819 0.008,-0.04496 z m 6.47092,0 -0.13281,0.763777 h 5.08186 l 0.13281,-0.763777 z m 9.84539,0 0.31885,0.763777 h 4.52892 l 0.12351,-0.718819 0.008,-0.04496 z m 10.23556,0 c 0.0495,0.03176 0.0972,0.06579 0.14779,0.09612 l 0.006,0.0016 0.004,0.0021 c 0.97695,0.572093 2.10214,0.865617 3.32434,0.890902 h 0.002 c 1.3247,0.02515 2.58452,-0.251898 3.73207,-0.829924 0.10077,-0.05043 0.19871,-0.105909 0.29714,-0.160713 z m 11.17916,0 c 0.0653,0.07684 0.13393,0.150775 0.20877,0.219108 0.50459,0.460709 1.18966,0.69284 1.87896,0.675411 0.69985,-0.004 1.3874,-0.278431 1.8805,-0.77153 l 0.004,-0.0021 0.004,-0.0036 c 0.0366,-0.03736 0.0693,-0.07783 0.10335,-0.117305 z m 9.6144,0 -0.13229,0.763777 h 5.08392 l 0.1323,-0.763777 z m 10.20764,0 -0.1328,0.763777 h 5.08186 l 0.13332,-0.763777 z m 9.05837,0 0.24649,0.763777 h 5.03691 3.84782 l 0.38189,-0.763777 z m 15.73082,0 0.11679,0.763777 h 5.18159 4.88291 l 0.12506,-0.718819 0.008,-0.04496 h -5.0829 l -0.0372,0.216007 -0.0413,-0.216007 z m 11.70316,0 -0.13281,0.763777 h 5.08393 l 0.13281,-0.763777 z m 9.8454,0 0.31832,0.763777 h 4.52944 l 0.12299,-0.718819 0.008,-0.04496 z m 6.41356,0 -0.13229,0.763777 h 5.08392 l 0.12299,-0.718819 0.008,-0.04496 z m 6.47144,0 -0.13281,0.763777 h 5.08393 l 0.1328,-0.763777 z m 9.84539,0 0.31833,0.763777 h 4.52944 l 0.12505,-0.718819 0.008,-0.04496 z m 10.28775,0 c 0.0667,0.04194 0.13192,0.08561 0.2005,0.125057 l 0.004,0.0021 0.002,0.0021 c 0.99501,0.563551 2.1431,0.840884 3.39256,0.84956 1.51266,0.0234 2.90037,-0.176712 4.14652,-0.617016 h 0.002 c 0.30147,-0.107808 0.58868,-0.22873 0.86197,-0.361735 z" /></g></g></svg>
